<svg xmlns="http://www.w3.org/2000/svg" width="35.01" height="24.12" viewBox="0 0 35.01 24.12"><path fill="#FFF" d="M9.82 2.6c2.09 0 4.74 1.94 7.8 1.94 3.19 0 4.56-1.25 6.5-1.81.29-.08.57-.12.85-.12 1.6 0 2.96 1.18 2.96 1.18 1.94 1.81 4.94 12.38 4.44 15.44-.32 1.94-1.08 2.29-1.6 2.29-.3 0-.52-.12-.52-.12s-3.12-3.11-4.88-4.24-3-1.12-3-1.12h-9.75s-5.19 2.25-7 4.31c-.63.71-1.13 1.07-1.54 1.07-.78 0-1.21-1.28-1.46-3.82-.38-3.87 3.31-13.37 4.31-14.03.35-.23.5-.78 2.62-.96.09-.01.18-.01.27-.01m0-2.6c-.16 0-.32.01-.48.02-2.3.2-3.27.83-3.98 1.48.02-.02.08-.06.14-.1C3.2 2.92-.37 13.68.03 17.85c.18 1.84.6 6.17 4.05 6.17 1.6 0 2.76-1.11 3.5-1.95 1.65-1.88 3.17-3.43 5.05-3.43h9.67c.13.02.76.13 1.67.71 1.1.71 3.31 2.76 4.45 3.89l.26.26.32.18c.24.13.9.44 1.77.44.81 0 3.49-.32 4.17-4.47.59-3.65-2.54-15.24-5.23-17.76l-.04-.03-.04-.03c-.35-.3-2.22-1.82-4.67-1.82-.54 0-1.07.07-1.57.22-.77.23-1.42.51-2.05.79-1.16.51-2.08.92-3.72.92-1.2 0-2.48-.48-3.72-.94-1.31-.49-2.66-1-4.08-1z"/><circle fill="none" stroke="#FFF" stroke-width="2" stroke-miterlimit="10" cx="10.57" cy="10.33" r="2.28"/><circle fill="#FFF" stroke="#FFF" stroke-width="1.15" stroke-miterlimit="10" cx="17.29" cy="8.25" r="1.25"/><circle fill="#FFF" stroke="#FFF" stroke-miterlimit="10" cx="24.02" cy="8.12" r=".81"/><circle fill="#FFF" stroke="#FFF" stroke-miterlimit="10" cx="24.02" cy="12.63" r=".81"/><circle fill="#FFF" stroke="#FFF" stroke-miterlimit="10" cx="21.62" cy="10.35" r=".81"/><circle fill="#FFF" stroke="#FFF" stroke-miterlimit="10" cx="26.38" cy="10.35" r=".81"/></svg>