<svg xmlns="http://www.w3.org/2000/svg" width="20.02" height="22.44" viewBox="0 0 20.02 22.44"><path fill="#fff" d="M18.12 17.15l-1.83 3.39h-1.33l-1.72-3.38v-.88c0-.58.2-1.11.54-1.53.54.35 1.19.55 1.88.55.7 0 1.36-.21 1.91-.56.35.42.56.96.56 1.54v.87zM7.08 20.54l1.61-2.96v-4.16c0-1.2-.49-2.28-1.28-3.07.28-.51.44-1.09.44-1.71 0-.53-.12-1.03-.33-1.48.2-.32.45-.61.74-.84.56.36 1.21.58 1.92.58s1.37-.21 1.92-.58c.73.57 1.2 1.46 1.2 2.45v.37c-.72.65-1.18 1.59-1.18 2.63 0 .56.14 1.09.37 1.57-.72.78-1.16 1.81-1.16 2.95v1.34l1.49 2.92H7.08zm-3.05 0L1.9 17.07v-3.65c0-.66.26-1.26.69-1.69.51.29 1.1.46 1.73.46.64 0 1.24-.18 1.76-.47.44.44.71 1.05.71 1.71v3.68l-1.87 3.45h-.89zm.29-13.53c.9 0 1.63.73 1.63 1.63 0 .9-.73 1.63-1.63 1.63-.9 0-1.63-.73-1.63-1.63 0-.9.73-1.63 1.63-1.63m5.86-5.11c.86 0 1.55.7 1.55 1.55S11.04 5 10.18 5c-.85 0-1.55-.7-1.55-1.55s.7-1.55 1.55-1.55m7.11 9.87c0 .9-.73 1.63-1.63 1.63-.9 0-1.63-.73-1.63-1.63 0-.9.73-1.63 1.63-1.63.89-.01 1.63.72 1.63 1.63m1.54 1.53c.23-.46.36-.98.36-1.54 0-1.95-1.59-3.54-3.54-3.54-.16 0-.32.01-.48.04-.14-1.37-.83-2.58-1.85-3.4.2-.43.31-.91.31-1.41 0-1.9-1.55-3.45-3.45-3.45-1.9 0-3.45 1.55-3.45 3.45 0 .5.11.98.3 1.41-.3.24-.56.51-.8.82-.54-.36-1.2-.57-1.91-.57C2.37 5.11.79 6.7.79 8.65c0 .63.17 1.22.46 1.74C.48 11.16 0 12.23 0 13.42v4.19l2.97 4.84h14.45l2.6-4.81v-1.35c0-1.16-.45-2.21-1.19-2.99"/></svg>