<svg xmlns="http://www.w3.org/2000/svg" xmlns:xlink="http://www.w3.org/1999/xlink" version="1.1" id="Icon" x="0px" y="0px" viewBox="5.167 14.405 89.895 68.698" enable-background="new 5.167 14.405 89.895 68.698" xml:space="preserve" preserveAspectRatio="xMidYMid"><path fill="#ADB0AF" d="M50.115 14.405c-17.59 0-33.516 7.257-44.947 18.931l6.454 6.453c9.778-10.02 23.42-16.252 38.494-16.252 c15.074 0 28.7 6.2 38.5 16.252l6.454-6.453C83.631 21.7 67.7 14.4 50.1 14.405z"/><path fill="#ADB0AF" d="M50.115 29.083c-13.543 0-25.8 5.61-34.574 14.626l6.454 6.454c7.12-7.363 17.094-11.949 28.12-11.949 s21 4.6 28.1 11.949l6.453-6.454C75.915 34.7 63.7 29.1 50.1 29.083z"/><path fill="#ADB0AF" d="M50.115 44.32c-9.343 0-17.791 3.901-23.804 10.159l6.459 6.459c4.358-4.604 10.52-7.486 17.345-7.486 c6.826 0 13 2.9 17.3 7.486l6.459-6.459C67.906 48.2 59.5 44.3 50.1 44.32z"/><circle fill="#ADB0AF" cx="50" cy="72.3" r="10.8"/></svg>