<svg xmlns="http://www.w3.org/2000/svg" xmlns:xlink="http://www.w3.org/1999/xlink" version="1.1" id="Icon" x="0px" y="0px" viewBox="0 0 300 107.39" enable-background="new 0 0 300 107.39" xml:space="preserve"><polygon fill="#FFFFFF" points="288.99,39.97 293.72,39.97 293.72,40.67 291.75,40.67 291.75,45.8 290.96,45.8 290.96,40.67 288.99,40.67"/><path fill="#FFFFFF" d="M299.24 45.8v-3.45c0-0.17 0.02-0.91 0.02-1.45h-0.02l-1.63 4.9h-0.79l-1.64-4.89h-0.01 c0 0.53 0.01 1.27 0.01 1.44v3.45h-0.76v-5.83h1.13l1.67 4.92h0.01l1.65-4.92H300v5.83H299.24z"/><path fill="#FFFFFF" d="M275.06 61.46c-1.87-0.01-4.27-0.3-6.85-1.73l-1.94 4.41l0.42 0.23c1.14 0.6 4.37 2.14 9.2 2.14 c6.26 0 11.98-2.6 11.98-8.44c0-4.3-3.09-6.31-6.87-8.39c-3.78-2.09-6.31-3.18-6.26-5.11c0.04-1.34 1.59-1.96 3.93-1.91 c2.98 0.06 4.77 0.71 6.23 1.49l2.08-4.2l-0.38-0.21c-1.05-0.56-4.07-1.99-9.04-1.99c-7.59 0-10.78 3.99-10.78 7.71 c0 2.2 0.4 5.17 6.58 8.49c5.05 2.74 5.76 3.59 5.77 4.95C279.14 60.63 277.47 61.48 275.06 61.46z"/><path fill="#FFFFFF" d="M259.98 58.31c-1.49-2.09-2.66-3.78-3.58-5.2c3.03-1.05 5.09-3.33 5.09-7.21c0-2.88-1.14-4.73-3.25-5.98 c-2.33-1.38-5.87-1.52-10.07-1.52h-9.12v27.16h8.04V55.15h0.82c0.65 0 1.07 0.16 2 1.67c2 3.22 2.99 4.73 4.3 6.86 c0.72 1.14 1.85 1.88 4 1.88h7.52C265.74 65.56 262.43 61.78 259.98 58.31z M251.37 50.2c-0.76 0.4-1.94 0.6-3.19 0.6h-1.08v-7.97 c0 0 1.15 0 1.69 0c3.11 0 4.58 1.42 4.58 3.9C253.37 48.75 252.46 49.65 251.37 50.2z"/><path fill="#FFFFFF" d="M231.01 65.56c2.17 0 2.94-0.32 3.97-4.24l0.14-0.57h-14.15v-6.93h8.06c2.06 0 2.94-0.32 3.98-4.23 l0.15-0.55h-12.19v-5.82h8.7c2.58 0 2.85-0.32 3.79-4.26l0.12-0.55h-20.85v27.16H231.01z"/><path fill="#FFFFFF" d="M206.67 51l0.02-0.01h-14.54c0 0 0.6 2.11 0.7 2.47c0.59 2.11 1.04 2.29 2.26 2.31l0.01 0.02h3.84v5.57 c-1.07 0.22-2.28 0.32-3.62 0.27c-4.87-0.19-8.93-3.61-8.93-9.64c0-5.54 3.76-9.13 9.58-9.13c3.08 0 5.69 0.65 7.92 1.67l2.79-4.44 l-0.42-0.25c-1.76-1.04-4.66-2.07-9.6-2.2c-5.16-0.14-9.85 1.57-12.31 3.2c-2.31 1.56-6.15 5.11-6.15 11.5 c0 3.72 1.14 6.81 3.38 9.18c3.05 3.21 8.24 5 14.24 5c5.02 0 8.62-0.95 10.9-2.25V51H206.67z"/><path fill="#FFFFFF" d="M153.29 52.09c0-2.96 0.67-5.4 2.05-7.01c1.16-1.39 2.8-2.11 4.68-2.11c1.88 0 3.52 0.72 4.69 2.11 c1.38 1.62 2.05 4.06 2.05 7.01c0 2.96-0.67 5.4-2.05 7.02c-1.17 1.39-2.81 2.1-4.69 2.1c-1.88 0-3.52-0.72-4.68-2.1 C153.95 57.48 153.29 55.04 153.29 52.09z M170.91 41.55c-2.65-2.58-6.28-3.88-10.91-3.88c-4.64 0-8.27 1.29-10.91 3.88 c-2.64 2.59-3.95 6.11-3.95 10.57c0 4.41 1.32 7.92 3.95 10.51c2.63 2.6 6.26 3.9 10.91 3.9c4.65 0 8.29-1.3 10.92-3.9 c2.64-2.59 3.95-6.1 3.95-10.51C174.88 47.66 173.56 44.13 170.91 41.55z"/><path fill="#FFFFFF" d="M139.17 58.31c-1.48-2.09-2.66-3.78-3.58-5.2c3.03-1.05 5.1-3.33 5.1-7.21c0-2.88-1.15-4.73-3.25-5.98 c-2.35-1.38-5.88-1.52-10.07-1.52h-9.12v27.16h8.04V55.15h0.82c0.65 0 1.06 0.16 2.01 1.67c2 3.22 2.99 4.73 4.3 6.86 c0.71 1.14 1.84 1.88 4 1.88h7.51C144.92 65.56 141.62 61.78 139.17 58.31z M130.56 50.2c-0.77 0.4-1.95 0.6-3.19 0.6h-1.08v-7.97 c0 0 1.13 0 1.7 0c3.11 0 4.59 1.42 4.59 3.9C132.57 48.75 131.63 49.65 130.56 50.2z"/><path fill="#FFFFFF" d="M78.6 61.5c0.83-0.48 1.77-1.2 2.52-2.24c1.61-2.24 2.23-2.82 5.32-12.4c1.22-3.77 2.53-8.02 4.29-12.61 c0.59-1.54 2.3-2.33 3.85-1.78c1.55 0.55 2.39 2.24 1.88 3.8c-1.32 4.06-2.93 8.42-4.25 12.52c-4.09 12.69-2.32 18.46-1.25 18.7 c1.08 0.25 3.7-0.81 6.19-5.93c2.21-4.71 3.77-10.51 4.67-15.46c0.76-4.2 1.24-7.89 1.58-10.66c0.2-1.64 1.68-2.82 3.33-2.65 c1.65 0.17 2.86 1.63 2.71 3.28c-0.03 0.38-0.32 5.68-1.66 12.21c-0.83 4.84-2.11 10.67-3.52 16.77c-0.83 3.62-1.69 7.01-2.58 10.18 c2.59-0.38 5.38-0.71 8.38-0.95c1.67-0.14 3.14 1.11 3.28 2.79c0.13 1.67-1.11 3.14-2.79 3.27c-4 0.32-7.6 0.8-10.83 1.37 c-3.7 11.31-8.02 25.67-20.82 25.67c-1.51 0-3.02-0.22-4.43-0.68c-3.65-1.2-6.19-3.8-7.16-7.32c-2.22-8.14 4.42-13.34 5.51-14.13 c1.02-0.82 7.54-5.69 22.15-8.81c0.43-1.44 0.85-2.9 1.25-4.38c-3.17 1.98-5.96 1.54-6.91 1.3c-0.75-0.17-2.59-0.82-3.97-3.25 c-0.73-1.29-1.22-2.88-1.45-4.78c-1.25 1.17-2.51 1.9-3.64 2.36L78.6 61.5z M92.76 83.21c-11.35 2.92-15.63 6.36-16.23 6.83 c-0.6 0.48-4.57 3.29-3.35 7.74c0.42 1.53 1.45 2.73 3.15 3.29c2.31 0.76 5.59 0.12 7.2-1.21C87.17 96.86 90.08 90.69 92.76 83.21z"/><path fill="#FFFFFF" d="M81.25 77.67c-0.78 0-1.56-0.3-2.16-0.89c-0.24-0.24-5.56-5.96-6.37-17.08c-0.62-8.43 0.17-16.56 1.07-23.9 c-7.13 16.05-15.8 33.73-22.42 32.11c-6.58-1.62-8.81-10.01-6.45-37.54c-10.69 27.99-15.2 32.82-23.13 37.34 c-7.94 4.53-18.97 2.07-19.43 1.96c-1.64-0.38-2.66-2.01-2.28-3.64c0.38-1.63 2-2.66 3.64-2.28l0 0c0.09 0.02 9.2 2.03 15.06-1.31 c5.66-3.23 9.75-5.57 21.92-38.09c4.75-13.51 7.21-22.04 7.23-22.13c0.44-1.53 1.98-2.46 3.53-2.14c1.56 0.32 2.6 1.78 2.41 3.36 c-0.02 0.13-1.61 12.93-2.79 26.38c-2.22 25.21-1.2 30.33 1.55 30.84c2.65 0.49 8.9-9.92 28.96-58.76c0.63-1.54 2.38-2.28 3.92-1.68 c1.54 0.61 2.32 2.34 1.74 3.89c-0.1 0.26-9.6 26.14-8.45 55.35c0.34 8.53 4.44 12.86 4.61 13.04c1.19 1.19 1.18 3.1-0.01 4.29 C82.81 77.37 82.03 77.67 81.25 77.67z"/></svg>