<svg xmlns="http://www.w3.org/2000/svg" xmlns:xlink="http://www.w3.org/1999/xlink" version="1.1" id="MyRogers" x="0px" y="0px" viewBox="0 0 62.107 59.805" enable-background="new 0 0 62.107 59.805" xml:space="preserve"><path fill="#DA291C" d="M61.907 39.68c-0.425-0.53-3.396-0.977-7.273 0.679c0 0 0.083-5.258 1.265-10.159 c0 0 0.993-5.298 2.175-8.742c1.04-2.98 1.938-4.437 1.607-5.563c-0.189-0.795-0.567-0.795-0.993-0.795 c-1.418 0.132-2.647 5.232-2.79 5.63l-0.52 2.053c-0.52 2.119-3.452 11.259-5.674 12.318c-0.521 0.132-0.804 0-1.041-0.397 c-0.804-1.391-0.284-3.643 1.418-9.139l0.662-2.318c0.709-2.119 1.418-4.106 1.04-5.033c-0.236-0.53-0.662-0.662-1.04-0.596 c-0.993 0.265-1.892 4.569-2.128 5.497l-0.624 2.485c-1.802 3.599-3.839 5.914-5.035 7.574c-0.085-1.116-0.094-2.305 0.005-3.548 c0.708-8.886 2.235-14.014 6.292-23.082c0.182-0.443 1.551-3.721 1.551-3.721c0.424-0.825-5.128-0.991-5.128-0.991 s-0.909-0.317-1.09 0.57c-0.424 1.522-0.381 2.843-1.107 4.428c-7.145 16.995-10.256 23.615-12.849 26.62 c-0.83 0.964-1.802 0.635-2.528-0.888c-2.301-5.009 1.221-23.969 2.372-27.203c0.173-0.543 0.036-1.133 0.595-1.73 c0.64-0.683 0.475-1.631 0.475-1.631c-1.332-0.888-2.845-2.319-4.237-1.939c-0.788 0.19-0.786 0.25-1.391 0.95 c-0.424 0.508-0.186 0.819-0.379 1.595C21.505 18.81 13.04 30.45 9.17 34c-1.119 1.017-2.18 2.044-3.257 2.22 C3.024 36.68 0 33.99 0 37.122c0 1.34 2.62 2.63 3.52 2.801c4.361 0.82 9.23-1.928 16.496-15.561l6.236-11.668 c-3.356 16.37-2.375 22.385-0.801 24.033c0.787 0.76 2.18 1.01 2.97 0.889c2.724-0.317 7.432-5.406 14.887-23.936 c-4.293 18.035-2.119 26.219-1.21 27.677c0.363 0.57 2.22 1.34 3.45 0.634c1.724-0.991-1.54-3.703-1.81-4.567 c-0.122-0.393-0.231-0.814-0.332-1.251c0.789-1.292 2.095-2.904 3.373-4.857c-0.417 2.652-0.36 4.21 0.09 5.11 c0.52 1.13 1.47 1.59 2.22 1.523c2.033-0.397 2.648-1.06 4.539-5.099l-0.745 8.04c-7.376 2.782-13.76 6.292-14.611 12.45 c-0.189 1.06-0.284 3.18 0.9 4.636c1.986 2.32 5.53 2.12 7.61 1.126c5.106-2.45 6.714-6.822 7.282-12.186 c0 0 0.236-1.656 0.425-3.709c3.026-1.06 4.389-0.943 6.801-0.678C62.238 42.59 62.24 40.21 61.91 39.68z M45.46 56.92 c-0.804 0.33-3.499 0.993-4.775-0.729c-0.615-0.86-0.898-1.788-0.662-2.781c1.135-5.298 9.835-9.007 12.578-9.735 C51.513 50.42 49.86 55.06 45.46 56.916z"/></svg>