<svg xmlns="http://www.w3.org/2000/svg" viewBox="0 0 300 52.77"><g fill="#FFF"><path d="M46.13 9.2c3.33 3.91 6.26 9.69 6.26 16.97 0 11.86-7.13 19.02-14.78 19.02-3.75 0-7.4-1.32-9.61-3 12.2-5.17 19.38-15.84 19.38-24.94 0-3.42-.63-6.14-1.25-8.05M9.19 6.26C11.1 5.64 13.83 5 17.23 5c9.1 0 19.77 7.18 24.94 19.38 1.69-2.21 3-5.85 3-9.61C45.18 7.13 38.02 0 26.16 0 18.88 0 13.1 2.93 9.19 6.26M6.26 43.19C5.64 41.28 5 38.56 5 35.16c0-9.1 7.18-19.77 19.38-24.94-2.21-1.69-5.86-3-9.61-3C7.13 7.21 0 14.37 0 26.23c0 7.28 2.93 13.06 6.26 16.96m36.93 2.94c-1.91.62-4.63 1.26-8.04 1.26-9.1 0-19.77-7.18-24.94-19.38-1.69 2.2-3 5.85-3 9.6 0 7.65 7.16 14.78 19.02 14.78 7.28 0 13.06-2.93 16.96-6.26M70.64 6.48h11.88c10.88 0 14.28 6.75 14.28 12.02 0 7.38-5.59 10.21-7.21 10.81v.25c.77.22 2.42 1 4.56 4.84l6.52 11.5H92.6l-5.63-9.96c-2.27-4.07-3.19-5.39-6.81-5.39h-2.52V45.9h-7.01V6.48m11.7 18.21c6.03 0 7.27-3.77 7.27-6.23 0-2.1-1.08-6.11-7.27-6.11h-4.69v12.34h4.69zM103.82 26.23c0-11.98 6.96-20.24 18.4-20.24 11.44 0 18.4 8.32 18.4 20.24 0 12.1-7.14 20.18-18.4 20.18-11.38 0-18.4-8.09-18.4-20.18m29.29 0c0-8.75-3.56-14.2-10.89-14.2-7.16 0-10.89 5.21-10.89 14.2 0 8.92 3.73 14.13 10.89 14.13 7.11 0 10.89-5.21 10.89-14.13M169.11 24.63l-1.86 5.7h6.01v8.83c-1.53.72-3.14 1.2-5.72 1.2-8.33 0-12.47-5.57-12.47-14.07 0-8.39 4.2-14.25 12.72-14.25 3.13 0 6.3 1.01 8.93 2.66l1.97-6.05c-3.1-1.62-7.22-2.66-11.43-2.66-12.04 0-19.71 8.8-19.71 20.78 0 11.32 6.78 19.64 19.46 19.64 5.4 0 9.83-1.38 13.35-3.17v-18.6h-11.25zM191.73 6.48v39.43h24.33v-5.86H198.9V28.74h15.12v-5.87H198.9V12.34h15.18L216 6.48h-24.27M226.18 6.48h11.88c10.88 0 14.28 6.75 14.28 12.02 0 7.38-5.59 10.21-7.21 10.81v.25c.77.22 2.42 1 4.56 4.84l6.52 11.5h-8.07l-5.63-9.96c-2.27-4.07-3.19-5.39-6.81-5.39h-2.52V45.9h-7V6.48m11.69 18.21c6.03 0 7.28-3.77 7.28-6.23 0-2.1-1.08-6.11-7.28-6.11h-4.69v12.34h4.69zM268.89 16.47c0-3.12 2.96-4.45 6.26-4.45 4.43 0 7.85 1.47 8.54 1.73V7.16c-.55-.17-3.59-1.18-9.21-1.18-8.62 0-13.25 5.09-13.25 10.89 0 5.79 4.7 8.77 8.61 10.85.89.48 1.98 1.05 2.83 1.5 3.24 1.72 5.62 3.08 5.62 6.08 0 3.41-3.29 5.02-6.58 5.02-5.62 0-9.03-2.05-9.61-2.37l-1.9 5.83c.56.33 5.04 2.62 11.64 2.62 8.08 0 14.11-4.73 14.11-11.73 0-4.97-3.38-8.12-8.94-11.08-.97-.52-1.71-.91-2.62-1.4-3.1-1.64-5.5-2.94-5.5-5.72zM293.36 45.91h-.61v-3.84h-1.4v-.54h3.42v.54h-1.41M297.74 44.89h.02l1.29-3.36h.95v4.38h-.61v-3.66h-.02l-1.44 3.66h-.4l-1.44-3.66h-.02v3.66h-.59v-4.38h.96"/></g></svg>