<svg xmlns="http://www.w3.org/2000/svg" viewBox="0 0 300 52.77"><g fill="#FFF"><path d="M46.15 9.2c3.34 3.91 6.27 9.69 6.27 16.97 0 11.87-7.13 19.03-14.78 19.03-3.75 0-7.4-1.32-9.61-3C40.22 37.02 47.4 26.35 47.4 17.24c0-3.41-.63-6.13-1.25-8.04M9.2 6.27c1.91-.63 4.64-1.26 8.04-1.26 9.1 0 19.78 7.18 24.95 19.39 1.69-2.21 3-5.86 3-9.61C45.2 7.14 38.04 0 26.17 0 18.89 0 13.11 2.93 9.2 6.27M6.27 43.21c-.63-1.91-1.26-4.64-1.26-8.04 0-9.1 7.18-19.78 19.39-24.95-2.21-1.69-5.86-3-9.61-3C7.14 7.21 0 14.37 0 26.24c0 7.28 2.93 13.07 6.27 16.97m36.94 2.94c-1.91.62-4.64 1.26-8.04 1.26-9.11 0-19.78-7.18-24.95-19.39-1.69 2.21-3 5.86-3 9.61 0 7.65 7.16 14.79 19.03 14.79 7.27-.01 13.06-2.94 16.96-6.27M70.67 6.48h11.89c10.89 0 14.29 6.76 14.29 12.03 0 7.38-5.6 10.21-7.21 10.82v.25c.77.22 2.42 1 4.57 4.85l6.52 11.51h-8.07l-5.63-9.97c-2.27-4.08-3.19-5.4-6.81-5.4H77.7v15.36h-7.01V6.48M82.37 24.7c6.03 0 7.28-3.77 7.28-6.23 0-2.1-1.08-6.11-7.28-6.11h-4.69V24.7h4.69zM103.86 26.24c0-11.98 6.96-20.25 18.41-20.25s18.41 8.33 18.41 20.25c0 12.1-7.14 20.19-18.41 20.19-11.39 0-18.41-8.09-18.41-20.19m29.31 0c0-8.75-3.56-14.2-10.89-14.2-7.16 0-10.9 5.21-10.9 14.2 0 8.93 3.73 14.14 10.9 14.14 7.1 0 10.89-5.22 10.89-14.14M169.19 24.64l-1.86 5.7h6.01v8.84c-1.53.72-3.14 1.2-5.72 1.2-8.34 0-12.48-5.57-12.48-14.08 0-8.39 4.2-14.26 12.73-14.26 3.13 0 6.3 1.01 8.94 2.66l1.97-6.05c-3.1-1.62-7.22-2.66-11.44-2.66-12.05 0-19.71 8.81-19.71 20.79 0 11.32 6.78 19.65 19.46 19.65 5.4 0 9.84-1.38 13.36-3.17V24.64h-11.26zM191.81 6.48v39.45h24.34v-5.87h-17.16V28.75h15.12v-5.87h-15.12V12.35h15.19l1.91-5.87h-24.28M226.28 6.48h11.88c10.89 0 14.29 6.76 14.29 12.03 0 7.38-5.6 10.21-7.21 10.82v.25c.77.22 2.42 1 4.57 4.85l6.52 11.51h-8.07l-5.63-9.97c-2.27-4.08-3.19-5.4-6.82-5.4h-2.52v15.36h-7.01V6.48m11.7 18.22c6.03 0 7.28-3.77 7.28-6.23 0-2.1-1.08-6.11-7.28-6.11h-4.69V24.7h4.69zM269.01 16.48c0-3.12 2.96-4.45 6.26-4.45 4.43 0 7.85 1.47 8.54 1.73v-6.6c-.55-.17-3.59-1.19-9.22-1.19-8.62 0-13.25 5.09-13.25 10.89 0 5.79 4.7 8.77 8.61 10.86.89.48 1.98 1.05 2.83 1.51 3.24 1.73 5.62 3.08 5.62 6.08 0 3.41-3.29 5.03-6.58 5.03-5.62 0-9.03-2.05-9.61-2.37l-1.9 5.83c.56.33 5.04 2.62 11.64 2.62 8.08 0 14.12-4.73 14.12-11.74 0-4.97-3.38-8.12-8.94-11.08-.97-.52-1.71-.91-2.63-1.4-3.09-1.64-5.49-2.94-5.49-5.72zM292.91 44.92h.01l1.3-3.37h.95v4.39h-.61v-3.67h-.01l-1.46 3.67h-.39l-1.45-3.67h-.01v3.67h-.6v-4.39h.96M300 45.25c-.34.47-.91.79-1.67.79-1.35 0-2.31-.96-2.31-2.31 0-1.37 1-2.3 2.34-2.3.6 0 1.25.23 1.58.68l-.48.37c-.21-.3-.64-.51-1.09-.51-1.02 0-1.67.8-1.67 1.76 0 .99.64 1.77 1.65 1.77.49 0 .92-.2 1.18-.58l.47.33z"/></g></svg>