<svg xmlns="http://www.w3.org/2000/svg" xmlns:xlink="http://www.w3.org/1999/xlink" version="1.1" id="LNH Logo" x="0px" y="0px" viewBox="0 0 36.053 41.034" enable-background="new 0 0 36.053 41.034" xml:space="preserve">
	
	<path fill="#FFFFFF" d="M33.2,14.891c0-1.811,0.434-3.416,1.009-4.72l1.141-2.59L32.667,6.79
		c-1.169-0.345-2.018-1.227-2.53-2.623l-1.182-3.238l-2.637,2.183C25.451,3.831,24.46,4.3,23.407,4.3
		c-1.411,0-2.809-0.704-3.682-1.568l-1.699-1.68l-1.697,1.68C15.455,3.596,14.058,4.3,12.648,4.3
		c-1.054,0-2.045-0.469-2.912-1.188L7.098,0.929L5.917,4.167C5.406,5.563,4.556,6.445,3.388,6.79L0.704,7.581l1.141,2.59
		c0.575,1.304,1.01,2.909,1.01,4.72c0,4.423-2.17,5.302-2.17,9.945c0,6.214,4.628,10.678,9.752,11.997
		c2.531,0.64,3.711,0.703,5.6,1.231c0.246,0.259,1.99,2.143,1.99,2.143s1.745-1.885,1.99-2.143
		c1.889-0.528,3.069-0.591,5.602-1.231c5.122-1.319,9.749-5.783,9.749-11.997C35.369,20.193,33.2,19.314,33.2,14.891z
		 M25.313,35.635c-2.712,0.686-4.584,0.861-5.962,1.358c-0.177,0.166-1.324,1.409-1.324,1.409s-1.146-1.243-1.323-1.409
		c-1.378-0.497-3.251-0.672-5.965-1.358C5.033,34.192,1.906,29.4,1.906,24.836c0-4.146,2.165-5.425,2.165-9.954
		c0-3.53-1.685-6.51-1.685-6.51S6.527,8.01,7.648,2.977c0,0,2.484,2.557,5.001,2.557c3.244,0,5.379-2.757,5.379-2.757
		s2.135,2.757,5.38,2.757c2.517,0,4.999-2.557,4.999-2.557c1.122,5.033,5.263,5.395,5.263,5.395s-1.685,2.98-1.685,6.51
		c0,4.529,2.167,5.807,2.167,9.954C34.151,29.4,31.022,34.192,25.313,35.635z"/>
	<path fill="#FFFFFF" d="M30.766,14.882c0-3.231,1.222-5.72,1.222-5.72s-2.817-0.569-4.13-4.135c0,0-1.871,1.745-4.451,1.745
		c-3.233,0-5.38-2.27-5.38-2.27s-2.146,2.27-5.379,2.27c-2.58,0-4.45-1.745-4.45-1.745C6.886,8.593,4.067,9.162,4.067,9.162
		s1.219,2.489,1.219,5.72c0,4.792-2.166,6.178-2.166,9.954c0,5.275,4.113,8.634,7.925,9.602c3.018,0.766,4.991,0.852,6.316,1.492
		c0,0,0.483,0.442,0.665,0.645c0.182-0.203,0.665-0.645,0.665-0.645c1.325-0.64,3.3-0.725,6.319-1.492
		c3.811-0.968,7.922-4.327,7.922-9.602C32.933,21.061,30.766,19.674,30.766,14.882z M6.672,14.882
		c0-2.049-0.444-3.819-0.827-4.964C6.736,9.43,7.851,8.566,8.743,7.082c0.953,0.534,2.312,1.074,3.905,1.074
		c2.415,0,4.299-1.054,5.379-1.846c1.08,0.792,2.966,1.846,5.38,1.846c0.385,0,0.755-0.033,1.113-0.088L4.756,22.911
		C5.324,20.677,6.672,18.829,6.672,14.882z M9.364,32.326c-2.529-1.299-4.742-3.795-4.853-7.221L27.709,7.683
		c0.81,1.124,1.737,1.818,2.499,2.236c-0.381,1.145-0.826,2.915-0.826,4.964c0,0.851,0.062,1.605,0.166,2.285L9.364,32.326z
		 M24.67,33.095c-2.392,0.608-5.316,0.922-6.201,1.426c-0.198,0.146-0.442,0.405-0.442,0.405s-0.243-0.259-0.441-0.405
		c-0.884-0.504-3.81-0.817-6.201-1.426c-0.088-0.022-0.18-0.047-0.27-0.073L29.93,18.893c0.642,2.243,1.62,3.712,1.62,5.943
		C31.549,29.312,27.984,32.253,24.67,33.095z"/>

	<path fill="#010101" d="M27.846,7.679L4.648,25.101c0.111,3.427,2.324,5.922,4.853,7.221l20.185-15.158
		c-0.103-0.68-0.166-1.434-0.166-2.285c0-2.049,0.444-3.819,0.826-4.964C29.583,9.497,28.656,8.803,27.846,7.679z"/>
	<path fill="#010101" d="M23.407,8.156c-2.415,0-4.301-1.054-5.38-1.846c-1.08,0.792-2.964,1.846-5.379,1.846
		c-1.594,0-2.952-0.54-3.905-1.074C7.851,8.566,6.736,9.43,5.845,9.918c0.382,1.145,0.827,2.915,0.827,4.964
		c0,3.947-1.348,5.794-1.916,8.029L24.52,8.068C24.162,8.123,23.792,8.156,23.407,8.156z"/>
	<path fill="#010101" d="M11.114,33.022c0.09,0.026,0.182,0.051,0.27,0.073c2.392,0.608,5.317,0.922,6.201,1.426
		c0.199,0.146,0.441,0.405,0.441,0.405s0.244-0.259,0.442-0.405c0.885-0.504,3.809-0.817,6.201-1.426
		c3.314-0.842,6.879-3.784,6.879-8.259c0-2.231-0.978-3.7-1.62-5.943L11.114,33.022z"/>
	<path fill="#010101" d="M28.406,2.978c0,0-2.482,2.557-4.999,2.557c-3.245,0-5.38-2.757-5.38-2.757s-2.135,2.757-5.379,2.757
		c-2.517,0-5.001-2.557-5.001-2.557C6.526,8.011,2.385,8.373,2.385,8.373s1.685,2.98,1.685,6.51c0,4.529-2.165,5.807-2.165,9.954
		c0,4.564,3.128,9.356,8.833,10.799c2.714,0.686,4.586,0.861,5.965,1.358c0.177,0.166,1.323,1.409,1.323,1.409
		s1.147-1.243,1.324-1.409c1.378-0.497,3.25-0.672,5.962-1.358c5.709-1.443,8.838-6.235,8.838-10.799
		c0-4.146-2.167-5.425-2.167-9.954c0-3.53,1.685-6.51,1.685-6.51S29.528,8.011,28.406,2.978z M30.766,14.882
		c0,4.792,2.167,6.178,2.167,9.954c0,5.275-4.111,8.634-7.922,9.602c-3.019,0.766-4.994,0.852-6.319,1.492
		c0,0-0.482,0.442-0.665,0.645c-0.182-0.203-0.665-0.645-0.665-0.645c-1.325-0.64-3.298-0.725-6.316-1.492
		c-3.812-0.968-7.925-4.327-7.925-9.602c0-3.775,2.166-5.162,2.166-9.954c0-3.231-1.219-5.72-1.219-5.72s2.819-0.569,4.131-4.135
		c0,0,1.869,1.745,4.45,1.745c3.233,0,5.379-2.27,5.379-2.27s2.147,2.27,5.38,2.27c2.58,0,4.451-1.745,4.451-1.745
		c1.312,3.566,4.13,4.135,4.13,4.135S30.766,11.651,30.766,14.882z"/>
	<path fill="#010101" d="M36.084,7.24l-3.266-0.962c-0.996-0.294-1.729-1.067-2.177-2.293l-1.443-3.95L25.977,2.7
		c-0.853,0.708-1.718,1.066-2.57,1.066c-1.141,0-2.437-0.554-3.305-1.413l-2.075-2.051l-2.074,2.051
		c-0.867,0.858-2.166,1.413-3.305,1.413c-0.853,0-1.718-0.358-2.571-1.066l-3.22-2.665l-1.443,3.95
		c-0.449,1.226-1.18,1.999-2.177,2.293L-0.031,7.24l1.387,3.147c0.64,1.452,0.964,2.967,0.964,4.504
		c0,4.253-2.169,5.221-2.169,9.943c0,6.806,5.263,11.258,10.153,12.517c2.47,0.601,3.217,0.642,5.449,1.191
		c0.181,0.196,2.275,2.45,2.275,2.45s2.094-2.254,2.276-2.45c2.232-0.549,2.978-0.59,5.448-1.191
		c4.89-1.258,10.152-5.711,10.152-12.517c0-4.722-2.169-5.69-2.169-9.943c0-1.537,0.325-3.052,0.964-4.504L36.084,7.24z
		 M33.2,14.891c0,4.423,2.168,5.302,2.168,9.945c0,6.214-4.628,10.678-9.749,11.997c-2.533,0.64-3.713,0.703-5.602,1.231
		c-0.245,0.259-1.99,2.143-1.99,2.143s-1.744-1.885-1.99-2.143c-1.888-0.528-3.068-0.591-5.6-1.231
		c-5.124-1.319-9.752-5.783-9.752-11.997c0-4.643,2.17-5.522,2.17-9.945c0-1.811-0.435-3.416-1.01-4.72l-1.141-2.59L3.388,6.79
		c1.167-0.345,2.018-1.227,2.529-2.623l1.182-3.238l2.638,2.183C10.604,3.831,11.594,4.3,12.649,4.3
		c1.411,0,2.807-0.704,3.681-1.568l1.697-1.68l1.699,1.68C20.599,3.596,21.997,4.3,23.408,4.3c1.053,0,2.044-0.469,2.911-1.188
		l2.637-2.183l1.182,3.238c0.512,1.396,1.361,2.278,2.53,2.623l2.683,0.791l-1.141,2.59C33.635,11.475,33.2,13.08,33.2,14.891z"/>
	
	<path fill="#FFFFFF" d="M25.878,15.478l-2.169-3.319l-2.406,1.809c0,0,0.844,0.022,0.844,0.906v6.251l1.699-1.276V15.43
		l1.935,2.964l1.795-1.348v-7.79l-1.697,1.276L25.878,15.478L25.878,15.478z"/>
	<path fill="#FFFFFF" d="M18.917,18.573l-1.915,1.438v-2.88l-2.589,1.943c0,0,0.844,0.024,0.844,0.908v6.25l1.745-1.31v-2.849
		l1.915-1.438v2.849l1.663-1.248v-7.79l-1.663,1.249C18.917,15.695,18.917,18.573,18.917,18.573z"/>
	<path fill="#FFFFFF" d="M11.067,27.234v-5.801l-2.588,1.943c0,0,0.843,0.022,0.843,0.906v6.25l4.817-3.617
		c-0.104-1.246,0-1.987,0-1.987L11.067,27.234z"/>
	<polygon fill="#FFFFFF" points="32.086,37.584 31.61,36.167 31.326,36.167 31.205,37.894 31.417,37.894 31.501,36.39 
		31.984,37.894 32.187,37.894 32.669,36.39 32.754,37.894 32.967,37.894 32.846,36.167 32.562,36.167"/>
	<path fill="#FFFFFF" d="M34.116,36.326c0.144,0,0.264,0.031,0.346,0.072l0.056-0.182c-0.059-0.031-0.197-0.077-0.41-0.077
		c-0.535,0-0.902,0.364-0.902,0.907c0,0.569,0.364,0.876,0.85,0.876c0.21,0,0.377-0.042,0.456-0.082l-0.043-0.179
		c-0.09,0.043-0.228,0.071-0.367,0.071c-0.417,0-0.661-0.268-0.661-0.694C33.443,36.584,33.712,36.326,34.116,36.326z"/>

</svg>