<svg xmlns="http://www.w3.org/2000/svg" xmlns:xlink="http://www.w3.org/1999/xlink" version="1.1" id="Icon" x="0px" y="0px" viewBox="0 0 50.117 50.121" enable-background="new 0 0 50.117 50.121" xml:space="preserve" preserveAspectRatio="xMidYMid"><g id="call"><path fill="#ADAFAF" d="M0.028,8.298c-0.196,2.521,0.642,7.72,2.022,11.63c1.377,3.916,3.747,9.341,9.24,15.576l2.986,2.986
		c6.233,5.493,11.892,8.093,15.807,9.47c3.909,1.381,9.108,2.219,11.63,2.023c2.524-0.197,5.295-2.838,7.393-5.567
		c2.098-2.726-0.049-5.315-0.489-6.075c-0.439-0.763-1.282-2.004-5.725-3.224c-4.447-1.219-6.111-1.925-7.148-1.368
		c-1.035,0.554-3.977,3.298-6.093,4.238c-2.115,0.941-6.175-0.79-10.328-4.431c-0.396-0.347-2.521-2.473-2.87-2.868
		c-3.638-4.153-5.37-8.214-4.431-10.328c0.943-2.116,3.685-5.057,4.24-6.093c0.557-1.036-0.148-2.701-1.367-7.146
		c-1.221-4.444-2.461-5.285-3.224-5.726c-0.763-0.441-3.35-2.588-6.078-0.49S0.225,5.774,0.028,8.298z"/></g></svg>