<svg xmlns="http://www.w3.org/2000/svg" xmlns:xlink="http://www.w3.org/1999/xlink" version="1.1" id="LNH Logo" x="0px" y="0px" viewBox="0 0 36.053 41.034" enable-background="new 0 0 36.053 41.034" xml:space="preserve">

	<path fill="#FFFFFF" d="M33.169,14.933c0-1.811,0.434-3.416,1.009-4.72l1.141-2.59l-2.683-0.791
		c-1.169-0.345-2.018-1.227-2.53-2.623l-1.182-3.238l-2.637,2.183c-0.867,0.719-1.858,1.188-2.911,1.188
		c-1.411,0-2.809-0.704-3.682-1.568l-1.699-1.68l-1.697,1.68c-0.874,0.864-2.271,1.568-3.681,1.568
		c-1.054,0-2.045-0.469-2.912-1.188L7.067,0.971L5.886,4.209C5.375,5.605,4.525,6.487,3.357,6.832L0.673,7.623l1.141,2.59
		c0.575,1.304,1.01,2.909,1.01,4.72c0,4.423-2.17,5.302-2.17,9.945c0,6.214,4.628,10.678,9.752,11.997
		c2.531,0.64,3.711,0.703,5.6,1.231c0.246,0.259,1.99,2.143,1.99,2.143s1.745-1.885,1.99-2.143
		c1.889-0.528,3.069-0.591,5.602-1.231c5.122-1.319,9.749-5.783,9.749-11.997C35.338,20.235,33.169,19.356,33.169,14.933z
		 M25.282,35.677c-2.712,0.686-4.584,0.861-5.962,1.358c-0.177,0.166-1.324,1.409-1.324,1.409s-1.146-1.243-1.323-1.409
		c-1.378-0.497-3.251-0.672-5.965-1.358c-5.706-1.443-8.833-6.235-8.833-10.799c0-4.146,2.165-5.425,2.165-9.954
		c0-3.53-1.685-6.51-1.685-6.51s4.141-0.362,5.262-5.395c0,0,2.484,2.557,5.001,2.557c3.244,0,5.379-2.757,5.379-2.757
		s2.135,2.757,5.38,2.757c2.517,0,4.999-2.557,4.999-2.557c1.122,5.033,5.263,5.395,5.263,5.395s-1.685,2.98-1.685,6.51
		c0,4.529,2.167,5.807,2.167,9.954C34.12,29.442,30.991,34.234,25.282,35.677z"/>
	<path fill="#FFFFFF" d="M30.735,14.924c0-3.231,1.222-5.72,1.222-5.72s-2.817-0.569-4.13-4.135c0,0-1.871,1.745-4.451,1.745
		c-3.233,0-5.38-2.27-5.38-2.27s-2.146,2.27-5.379,2.27c-2.58,0-4.45-1.745-4.45-1.745C6.855,8.635,4.036,9.204,4.036,9.204
		s1.219,2.489,1.219,5.72c0,4.792-2.166,6.178-2.166,9.954c0,5.275,4.113,8.634,7.925,9.602c3.018,0.766,4.991,0.852,6.316,1.492
		c0,0,0.483,0.442,0.665,0.645c0.182-0.203,0.665-0.645,0.665-0.645c1.325-0.64,3.3-0.725,6.319-1.492
		c3.811-0.968,7.922-4.327,7.922-9.602C32.902,21.103,30.735,19.716,30.735,14.924z M6.641,14.924
		c0-2.049-0.444-3.819-0.827-4.964C6.705,9.472,7.82,8.608,8.712,7.124c0.953,0.534,2.312,1.074,3.905,1.074
		c2.415,0,4.299-1.054,5.379-1.846c1.08,0.792,2.966,1.846,5.38,1.846c0.385,0,0.755-0.033,1.113-0.088L4.725,22.953
		C5.293,20.719,6.641,18.871,6.641,14.924z M9.333,32.368c-2.529-1.299-4.742-3.795-4.853-7.221L27.678,7.725
		c0.81,1.124,1.737,1.818,2.499,2.236c-0.381,1.145-0.826,2.915-0.826,4.964c0,0.851,0.062,1.605,0.166,2.285L9.333,32.368z
		 M24.639,33.137c-2.392,0.608-5.316,0.922-6.201,1.426c-0.198,0.146-0.442,0.405-0.442,0.405s-0.243-0.259-0.441-0.405
		c-0.884-0.504-3.81-0.817-6.201-1.426c-0.088-0.022-0.18-0.047-0.27-0.073l18.815-14.129c0.642,2.243,1.62,3.712,1.62,5.943
		C31.518,29.354,27.953,32.295,24.639,33.137z"/>
	<path fill="#FFFFFF" d="M13.096,25.161l-2.169-3.319l-2.406,1.809c0,0,0.844,0.022,0.844,0.906v6.251l1.699-1.276v-4.419
		l1.935,2.964l1.795-1.348v-7.79l-1.697,1.276L13.096,25.161L13.096,25.161z"/>
	<path fill="#FFFFFF" d="M19.981,17.923l-1.915,1.438v-2.88l-2.589,1.943c0,0,0.844,0.024,0.844,0.908v6.25l1.745-1.31v-2.849
		l1.915-1.438v2.849l1.663-1.248v-7.79l-1.663,1.249C19.981,15.045,19.981,17.923,19.981,17.923z"/>
	<path fill="#FFFFFF" d="M24.836,17.199v-5.801l-2.588,1.943c0,0,0.843,0.022,0.843,0.906v6.25l4.817-3.617
		c-0.104-1.246,0-1.987,0-1.987L24.836,17.199z"/>

	<path fill="#010101" d="M27.678,7.725L4.48,25.147c0.111,3.427,2.324,5.922,4.853,7.221L29.518,17.21
		c-0.103-0.68-0.166-1.434-0.166-2.285c0-2.049,0.444-3.819,0.826-4.964C29.415,9.543,28.488,8.849,27.678,7.725z M14.793,26.729
		l-1.795,1.348l-1.935-2.964v4.419l-1.699,1.276v-6.251c0-0.883-0.844-0.906-0.844-0.906l2.406-1.809l2.169,3.319v-4.946
		l1.697-1.276L14.793,26.729L14.793,26.729z M21.644,21.586l-1.663,1.248v-2.849l-1.915,1.438v2.849l-1.745,1.31v-6.25
		c0-0.883-0.844-0.908-0.844-0.908l2.589-1.943v2.88l1.915-1.438v-2.878l1.663-1.249V21.586z M27.909,16.879l-4.817,3.617v-6.25
		c0-0.884-0.843-0.906-0.843-0.906l2.588-1.943v5.801l3.072-2.307C27.909,14.892,27.805,15.633,27.909,16.879z"/>
	<path fill="#010101" d="M23.376,8.198c-2.415,0-4.301-1.054-5.38-1.846c-1.08,0.792-2.964,1.846-5.379,1.846
		c-1.594,0-2.952-0.54-3.905-1.074C7.82,8.608,6.705,9.472,5.814,9.96c0.382,1.145,0.827,2.915,0.827,4.964
		c0,3.947-1.348,5.794-1.916,8.029L24.489,8.11C24.131,8.165,23.761,8.198,23.376,8.198z"/>
	<path fill="#010101" d="M11.083,33.064c0.09,0.026,0.182,0.051,0.27,0.073c2.392,0.608,5.317,0.922,6.201,1.426
		c0.199,0.146,0.441,0.405,0.441,0.405s0.244-0.259,0.442-0.405c0.885-0.504,3.809-0.817,6.201-1.426
		c3.314-0.842,6.879-3.784,6.879-8.259c0-2.231-0.978-3.7-1.62-5.943L11.083,33.064z"/>
	<path fill="#010101" d="M28.375,3.02c0,0-2.482,2.557-4.999,2.557c-3.245,0-5.38-2.757-5.38-2.757s-2.135,2.757-5.379,2.757
		c-2.517,0-5.001-2.557-5.001-2.557C6.495,8.053,2.354,8.415,2.354,8.415s1.685,2.98,1.685,6.51c0,4.529-2.165,5.807-2.165,9.954
		c0,4.564,3.128,9.356,8.833,10.799c2.714,0.686,4.586,0.861,5.965,1.358c0.177,0.166,1.323,1.409,1.323,1.409
		s1.147-1.243,1.324-1.409c1.378-0.497,3.25-0.672,5.962-1.358c5.709-1.443,8.838-6.235,8.838-10.799
		c0-4.146-2.167-5.425-2.167-9.954c0-3.53,1.685-6.51,1.685-6.51S29.497,8.053,28.375,3.02z M30.735,14.924
		c0,4.792,2.167,6.178,2.167,9.954c0,5.275-4.111,8.634-7.922,9.602c-3.019,0.766-4.994,0.852-6.319,1.492
		c0,0-0.482,0.442-0.665,0.645c-0.182-0.203-0.665-0.645-0.665-0.645c-1.325-0.64-3.298-0.725-6.316-1.492
		c-3.812-0.968-7.925-4.327-7.925-9.602c0-3.775,2.166-5.162,2.166-9.954c0-3.231-1.219-5.72-1.219-5.72s2.819-0.569,4.131-4.135
		c0,0,1.869,1.745,4.45,1.745c3.233,0,5.379-2.27,5.379-2.27s2.147,2.27,5.38,2.27c2.58,0,4.451-1.745,4.451-1.745
		c1.312,3.566,4.13,4.135,4.13,4.135S30.735,11.693,30.735,14.924z"/>
	<path fill="#010101" d="M36.053,7.282L32.787,6.32c-0.996-0.294-1.729-1.067-2.177-2.293l-1.443-3.95l-3.221,2.665
		c-0.853,0.708-1.718,1.066-2.57,1.066c-1.141,0-2.437-0.554-3.305-1.413l-2.075-2.051l-2.074,2.051
		c-0.867,0.858-2.166,1.413-3.305,1.413c-0.853,0-1.718-0.358-2.571-1.066l-3.22-2.665l-1.443,3.95
		C4.934,5.253,4.203,6.026,3.206,6.32l-3.268,0.962l1.387,3.147c0.64,1.452,0.964,2.967,0.964,4.504
		c0,4.253-2.169,5.221-2.169,9.943c0,6.806,5.263,11.258,10.153,12.517c2.47,0.601,3.217,0.642,5.449,1.191
		c0.181,0.196,2.275,2.45,2.275,2.45s2.094-2.254,2.276-2.45c2.232-0.549,2.978-0.59,5.448-1.191
		c4.89-1.258,10.152-5.711,10.152-12.517c0-4.722-2.169-5.69-2.169-9.943c0-1.537,0.325-3.052,0.964-4.504L36.053,7.282z
		 M33.169,14.933c0,4.423,2.168,5.302,2.168,9.945c0,6.214-4.628,10.678-9.749,11.997c-2.533,0.64-3.713,0.703-5.602,1.231
		c-0.245,0.259-1.99,2.143-1.99,2.143s-1.744-1.885-1.99-2.143c-1.888-0.528-3.068-0.591-5.6-1.231
		c-5.124-1.319-9.752-5.783-9.752-11.997c0-4.643,2.17-5.522,2.17-9.945c0-1.811-0.435-3.416-1.01-4.72l-1.141-2.59l2.684-0.791
		c1.167-0.345,2.018-1.227,2.529-2.623l1.182-3.238l2.638,2.183c0.867,0.719,1.857,1.188,2.912,1.188
		c1.411,0,2.807-0.704,3.681-1.568l1.697-1.68l1.699,1.68c0.873,0.864,2.271,1.568,3.682,1.568c1.053,0,2.044-0.469,2.911-1.188
		l2.637-2.183l1.182,3.238c0.512,1.396,1.361,2.278,2.53,2.623l2.683,0.791l-1.141,2.59C33.604,11.517,33.169,13.122,33.169,14.933
		z"/>
	<path fill="#FFFFFF" d="M32.449,35.662c-0.772,0-1.397,0.625-1.397,1.396s0.625,1.395,1.397,1.395c0.77,0,1.397-0.624,1.397-1.395
		S33.219,35.662,32.449,35.662z M32.449,38.154c-0.606,0-1.097-0.49-1.097-1.096s0.49-1.097,1.097-1.097
		c0.605,0,1.097,0.491,1.097,1.097C33.547,37.664,33.055,38.154,32.449,38.154z"/>
	<path fill="#FFFFFF" d="M33.022,36.734c0-0.262-0.211-0.473-0.472-0.473h-0.674v1.594h0.301v-0.648h0.213l0.303,0.648h0.329
		l-0.314-0.675C32.892,37.115,33.022,36.94,33.022,36.734z M32.55,36.907h-0.374V36.56h0.374c0.096,0,0.173,0.077,0.173,0.174
		C32.723,36.83,32.646,36.907,32.55,36.907z"/>
</svg>