<svg xmlns="http://www.w3.org/2000/svg" width="530" height="158"><path fill="#FFAF00" d="M430.02 134.33H530V158h-99.98z"/><path fill="#FFF" d="M38.06 53.34c-1.76-1.81-4.19-3.24-7.54-3.24-3.79 0-6.18 1.64-6.18 4.67 0 8.7 35.7 5.17 35.7 31.66 0 16.78-14.63 25.73-31.03 25.73-12.29 0-21.52-4.29-27.61-14.36-.17-.29-.27-.62-.27-.99 0-.73.41-1.35 1-1.68l14.93-7.51c.23-.1.48-.15.74-.15.63 0 1.18.31 1.53.78 1.53 1.98 4.94 5.5 9.93 5.5 3.78 0 8.33-1.77 8.33-5.42 0-9.59-34.69-4.54-34.69-31.79 0-15 12.49-25.22 29.65-25.22 7.34 0 13.98 2.78 19.12 8.19 3.78 3.78 3.84 9.94.06 13.71-3.79 3.77-9.88 3.9-13.67.12M95.04 38.86c0 1.04.84 1.88 1.88 1.88.51 0 .98-.2 1.31-.53 3.52-3.4 9.96-7.9 19.39-7.9 15.39 0 27.87 11.09 27.87 25.73l-.02 51.28c0 1.05-.85 1.9-1.9 1.9h-20.39c-1.05 0-1.9-.85-1.9-1.9V65.85c0-6.43-1.76-12.48-12.11-12.48-7.57 0-13.87 6.18-13.87 13.62l-.02 42.33c0 1.05-.85 1.9-1.9 1.9h-19.9c-1.05 0-1.9-.85-1.9-1.9V13.95c0-6.46 5.21-11.78 11.67-11.78s11.77 5.34 11.77 11.8l.02 24.89M199.19 31.23c-23.84 0-42.38 17.41-42.38 40.62 0 21.57 18.16 40.99 41.88 40.99 25.23 0 42.26-17.79 42.26-41.37-.01-23.33-18.3-40.24-41.76-40.24m-.25 59.41c-10.72 0-18.67-8.07-18.67-18.41 0-10.6 7.44-18.92 18.79-18.92 10.97 0 18.54 7.82 18.54 17.79 0 12.1-7.06 19.54-18.66 19.54M275.31 39.83c.25.75.95 1.28 1.78 1.28.52 0 1-.22 1.34-.56 3.38-3.46 9.99-8.75 18.81-8.75 9.22 0 16.49 4.22 20.61 10.33.35.49.92.81 1.57.81.53 0 1.01-.22 1.36-.56l-.01-.01c5.49-5.7 10.83-10.58 23.64-10.58 15.39 0 24.85 11.35 24.85 25.98v51.4c0 1.05-.85 1.9-1.9 1.9h-19.79c-1.05 0-1.9-.85-1.9-1.9V65.61c0-8.71-3.03-12.23-10.59-12.23-7.57 0-12.62 5.8-12.62 15.14v40.68c0 1.05-.85 1.9-1.9 1.9h-20.04c-1.05 0-1.9-.85-1.9-1.9V65.36c0-8.46-2.77-11.99-10.09-11.99-7.57 0-12.61 5.42-12.61 15.01v40.8c0 1.05-.85 1.9-1.9 1.9h-19.8c-1.05 0-1.9-.85-1.9-1.9V43.13c.04-4.17 2.28-7.81 5.6-9.83 1.72-1.04 3.73-1.64 5.88-1.64s4.62.63 6.35 1.66c2.4 1.44 4.26 3.78 5.16 6.51M406.59 43.55c0-4.29-2.33-8.09-5.78-10.19-1.79-1.09-3.88-1.73-6.11-1.73-2.24 0-4.32.64-6.1 1.73-3.4 2.09-5.68 5.87-5.68 10.16v65.65c0 1.06.86 1.92 1.92 1.92h19.83c1.06 0 1.92-.86 1.92-1.92V43.55zM394.8 1.79c-6.5 0-11.74 5.34-11.74 11.85 0 6.6 5.14 11.73 11.53 11.73 6.71 0 12.05-5.35 12.05-11.94 0-6.51-5.34-11.64-11.84-11.64M413.53 2.95h-1.94V1.79h5.22v1.16h-1.93v5.27h-1.35M418.14 1.79h1.61l1.61 4.8 1.64-4.8h1.57v6.43h-1.23V3.93l-1.47 4.29h-1.04l-1.48-4.28v4.28h-1.21"/></svg>