<svg xmlns="http://www.w3.org/2000/svg" xmlns:xlink="http://www.w3.org/1999/xlink" version="1.1" id="MyRogers" x="0px" y="0px" viewBox="0 0 121.693 138.016" enable-background="new 0 0 121.693 138.016" xml:space="preserve"><g><path fill="#e8e8e8" d="M7.915 50.065c0 14.331-7.309 17.588-7.309 33.509c0 22.9 17.7 37.9 34.2 42.2 c8.331 2 10.8 2.2 18.4 4.013c0.617 0.7 7.7 8.3 7.7 8.258s7.052-7.593 7.673-8.258 c7.51-1.844 10.026-1.984 18.351-4.013c16.483-4.232 34.215-19.243 34.215-42.17c0-15.921-7.312-19.179-7.312-33.509 c0-5.179 1.094-10.291 3.243-15.182l4.68-10.604l-11.015-3.244c-3.353-0.992-5.812-3.594-7.327-7.725L98.492 0L87.629 9 c-2.871 2.377-5.783 3.594-8.659 3.594c-3.841 0-8.216-1.877-11.143-4.771l-6.983-6.91l-6.983 6.9 c-2.935 2.894-7.301 4.771-11.145 4.771c-2.879 0-5.792-1.216-8.665-3.594L23.201 0l-4.87 13.3 c-1.51 4.131-3.972 6.733-7.327 7.725L0 24.28l4.666 10.604C6.821 39.8 7.9 44.9 7.9 50.065z M11.498 22.8 c3.95-1.159 6.821-4.137 8.54-8.838l3.978-10.909l8.886 7.349c2.926 2.4 6.3 4 9.8 4 c4.759 0 9.463-2.368 12.404-5.289l5.724-5.649l5.713 5.649c2.946 2.9 7.7 5.3 12.4 5.289c3.552 0 6.885-1.586 9.812-4.005 l8.89-7.349l3.985 10.909c1.72 4.7 4.6 7.7 8.5 8.838l9.038 2.663l-3.838 8.727c-1.943 4.394-3.413 9.801-3.413 15.9 c0 7.7 2 12.2 3.9 16.967c1.759 4.4 3.5 9 3.5 16.542c0 20.943-15.589 35.985-32.853 40.4 c-8.545 2.156-12.518 2.368-18.877 4.151c-0.824 0.869-6.706 7.222-6.706 7.222s-5.878-6.353-6.699-7.222 c-6.374-1.783-10.35-1.995-18.885-4.151C21.937 120.6 9.6 110.8 4.7 96.91c-1.439-4.104-2.261-8.569-2.261-13.335 c0-15.653 7.309-18.613 7.309-33.509c0-6.108-1.459-11.516-3.404-15.91l-3.841-8.727L11.498 22.766z"/><path fill="#e8e8e8" d="M37.546 111.163c0.305 0.1 0.6 0.2 0.9 0.244c8.056 2.1 17.9 3.1 20.9 4.8 c0.671 0.5 1.5 1.4 1.5 1.367s0.811-0.876 1.486-1.367c2.978-1.69 12.839-2.747 20.901-4.8 c11.163-2.836 23.173-12.754 23.173-27.832c0-7.522-3.294-12.475-5.459-20.03L37.546 111.163z"/><path fill="#e8e8e8" d="M16.115 77.086l66.606-50.012c-1.208 0.182-2.455 0.287-3.751 0.287c-8.139 0-14.494-3.547-18.126-6.217 c-3.639 2.67-9.984 6.217-18.127 6.217c-5.369 0-9.937-1.809-13.161-3.616c-2.998 4.998-6.766 7.912-9.762 9.6 c1.274 3.9 2.8 9.8 2.8 16.731C22.572 63.3 18 69.6 16.1 77.086z"/><path fill="#e8e8e8" d="M31.651 108.811l68.025-51.078c-0.35-2.288-0.563-4.835-0.563-7.697c0-6.91 1.489-12.87 2.782-16.731 c-2.568-1.409-5.698-3.748-8.428-7.533L15.301 84.479C15.673 96 23.1 104.4 31.7 108.811z M83.893 38.147v19.549 l10.357-7.779c0 0-0.349 2.5 0 6.704L78.007 68.814V47.751c0-2.981-2.831-3.052-2.831-3.052L83.893 38.147z M61.077 55.278v9.707 l6.455-4.852v-9.695l5.602-4.211v26.251l-5.602 4.209v-9.605l-6.455 4.853v9.596l-5.879 4.416V64.881 c0-2.972-2.841-3.051-2.841-3.051L61.077 55.278z M50.053 78.063v11.755l-6.046 4.53l-6.535-9.988v14.891l-5.711 4.301V82.492 c0-2.975-2.849-3.056-2.849-3.056l8.119-6.097l7.293 11.189V67.863l5.728-4.303V78.063"/><path fill="#e8e8e8" d="M13.594 54.383C12.395 66.3 6.5 71 6.5 83.574c0 15.4 10.5 31.5 29.8 36.4 c9.146 2.3 15.5 2.9 20.1 4.567c0.599 0.6 4.5 4.8 4.5 4.75s3.863-4.195 4.454-4.75 c4.65-1.677 10.961-2.261 20.095-4.567c19.244-4.866 29.779-21.019 29.779-36.399c0-13.967-7.307-18.286-7.307-33.538 c0-11.896 5.69-21.944 5.69-21.944S99.597 26.9 95.8 9.92c0 0-8.371 8.611-16.849 8.611c-10.929 0-18.126-9.287-18.126-9.287 s-7.197 9.287-18.127 9.287c-8.479 0-16.849-8.611-16.849-8.611C22.081 26.9 8.1 28.1 8.1 28.092s5.679 10 5.7 21.9 C13.815 51.6 13.7 53 13.6 54.383z M13.804 30.76c0 0 9.486-1.917 13.914-13.938c0 0 6.3 5.9 15 5.9 c10.897 0 18.127-7.642 18.127-7.642s7.234 7.6 18.1 7.642c8.692 0 14.999-5.878 14.999-5.878 c4.416 12 13.9 13.9 13.9 13.938s-4.119 8.393-4.119 19.276c0 16.1 7.3 20.8 7.3 33.5 c0 17.773-13.849 29.092-26.697 32.351c-10.175 2.581-16.819 2.875-21.279 5.036c0 0-1.633 1.486-2.247 2.2 c-0.617-0.678-2.247-2.164-2.247-2.164c-4.452-2.161-11.111-2.455-21.283-5.036c-12.841-3.259-26.703-14.578-26.703-32.351 c0-12.718 7.301-17.394 7.301-33.538C17.913 39.2 13.8 30.8 13.8 30.76z"/><path fill="#e8e8e8" d="M104.844 124.614c0 2.6 2.1 4.7 4.7 4.704c2.601 0 4.707-2.106 4.707-4.704 c0-2.597-2.106-4.7-4.707-4.7C106.946 119.9 104.8 122 104.8 124.614z M113.237 124.614c0 2.051-1.659 3.695-3.697 3.7 c-2.033 0-3.686-1.644-3.686-3.695c0-2.039 1.653-3.693 3.686-3.693C111.578 120.9 113.2 122.6 113.2 124.614z"/><path fill="#e8e8e8" d="M107.623 127.304h1.004v-2.184h0.721l1.02 2.184h1.114l-1.062-2.276c0.61-0.218 1.062-0.805 1.062-1.5 c0-0.887-0.714-1.6-1.602-1.6h-2.257V127.304z M108.627 122.936h1.253c0.325 0 0.6 0.3 0.6 0.6 c0 0.322-0.266 0.584-0.591 0.584h-1.253V122.936z"/></g></svg>