<svg xmlns="http://www.w3.org/2000/svg" xmlns:xlink="http://www.w3.org/1999/xlink" version="1.1" id="Icon" x="0px" y="0px" viewBox="36.5 674.338 400 52.725" enable-background="new 36.5 674.338 400 52.725" xml:space="preserve"><path fill="#DA291C" d="M108.205 700.773v-0.107c0-11.57 9.049-20.629 21.322-20.629c6.958 0 11.89 2.15 16.07 5.79 l-6.453 7.754c-2.833-2.371-5.656-3.732-9.571-3.732c-5.704 0-10.112 4.809-10.112 10.867v0.125c0 6.39 4.47 10.99 10.74 10.99 c2.667 0 4.702-0.568 6.344-1.646v-4.801h-7.818v-8.049h18.222v17.826c-4.188 3.469-10.012 6.131-17.201 6.13 C117.422 721.28 108.2 712.78 108.2 700.773z M164.204 680.551h10.582l16.857 39.939h-11.762l-2.893-7.094h-15.269 l-2.83 7.094h-11.54L164.204 680.551z M173.823 704.859l-4.417-11.283l-4.459 11.283H173.823z M191.685 680.838h14.428l9.447 15.34 l9.451-15.336h8.761l2.839 4.846v34.807h-10.926v-22.775l-10.125 15.52h-0.224l-10.077-15.4v22.656h-10.73v-34.807L191.685 680.838z M238.009 680.838h34.674v9.344H251.7v5.992h19.004v8.686H251.7v6.277h21.264v9.354H240.83v-34.807L238.009 680.838z M87.805 717.56 h2.818v0.416h-1.177v3.062h-0.467v-3.062h-1.175V717.56L87.805 717.56z M93.912 721.039v-2.059c0-0.104 0.015-0.543 0.015-0.865 h-0.015l-0.969 2.924h-0.475l-0.974-2.918h-0.005c0 0.32 0.01 0.76 0.01 0.859v2.059h-0.453v-3.479h0.673l0.995 2.934h0.008 l0.984-2.934h0.665v3.479H93.912z M82.854 683.59c3.352 3.93 6.3 9.75 6.3 17.076c0 11.939-7.168 19.139-14.854 19.14 c-3.77 0-7.437-1.326-9.654-3.023c12.262-5.199 19.478-15.941 19.478-25.1C84.119 688.25 83.48 685.51 82.85 683.59 M45.738 680.642c1.921-0.631 4.658-1.268 8.083-1.268c9.145 0 19.87 7.23 25.07 19.504c1.697-2.221 3.017-5.893 3.017-9.668 c0-7.695-7.195-14.873-19.112-14.873C55.472 674.34 49.66 677.29 45.74 680.64 M42.794 717.81 c-0.63-1.924-1.265-4.662-1.265-8.088c0-9.158 7.215-19.9 19.477-25.102c-2.217-1.697-5.885-3.02-9.655-3.02 c-7.685 0-14.852 7.199-14.852 19.135C36.5 708.06 39.44 713.88 42.79 717.81 M79.908 720.76 c-1.923 0.625-4.658 1.26-8.078 1.26c-9.147 0-19.87-7.223-25.065-19.498c-1.698 2.219-3.022 5.889-3.022 9.67 c0 7.7 7.2 14.88 19.11 14.875C70.171 727.06 75.98 724.11 79.91 720.76"/><path d="M323.238 680.816h10.963v30.012h19.168v9.621h-30.132V680.816z M355.176 703.07v-22.254h11.142v22.02 c0 5.72 2.88 8.44 7.29 8.441c4.41 0 7.295-2.605 7.295-8.143v-22.318h11.136v21.973c0 12.791-7.295 18.4-18.55 18.4 C362.246 721.19 355.18 715.47 355.18 703.07z M393.173 714.562l6.114-7.307c3.893 3.12 8.25 4.76 12.82 4.76 c2.941 0 4.528-1.021 4.528-2.723v-0.107c0-1.652-1.295-2.551-6.674-3.797c-8.427-1.926-14.926-4.301-14.926-12.459v-0.111 c0-7.363 5.827-12.678 15.325-12.678c6.728 0 11.99 1.8 16.28 5.258l-5.485 7.758c-3.625-2.541-7.577-3.902-11.084-3.902 c-2.661 0-3.956 1.129-3.956 2.547v0.109c0 1.82 1.36 2.61 6.84 3.855c9.105 1.98 14.76 4.93 14.76 12.34v0.109 c0 8.102-6.389 12.908-16.001 12.908C404.711 721.12 398.04 718.92 393.17 714.562z M305.105 680.816h-19.296v9.455l19.356 0.01 c2.544 0 5 1.87 5 5.627c0 3.709-2.438 5.701-5.001 5.701v9.477c9.23 0 14.895-6.715 14.895-15.135l0 0 C320.06 686.96 315.37 680.82 305.11 680.816z M295.257 701.607v-9.459h-9.448v9.459h-7.973v9.461h7.973v9.457h9.448v-9.457 h7.973v-9.461H295.257z M429.94 717.623h2.816v0.414h-1.177v3.064h-0.467v-3.064h-1.172V717.623z M436.049 721.101v-2.055 c0-0.105 0.012-0.545 0.012-0.867h-0.012l-0.975 2.922h-0.472l-0.976-2.916h-0.007c0 0.32 0.01 0.76 0.01 0.861v2.055h-0.453 v-3.48h0.674l0.995 2.936h0.008l0.982-2.936h0.667v3.48H436.049z"/></svg>