<svg xmlns="http://www.w3.org/2000/svg" xmlns:xlink="http://www.w3.org/1999/xlink" version="1.1" id="Icon" x="0px" y="0px" viewBox="26.829 9.688 46.343 80.623" enable-background="new 26.829 9.688 46.343 80.623" xml:space="preserve" preserveAspectRatio="xMidYMid"><path fill="#ADB0AF" d="M63.375 9.688H36.623c-5.411 0-9.794 4.463-9.794 9.967v60.689c0 5.5 4.4 10 9.8 9.967h26.752 c5.412 0 9.797-4.463 9.797-9.967V19.656C73.172 14.2 68.8 9.7 63.4 9.688z M50.003 85 c-2.637 0-4.772-2.133-4.772-4.766c0-2.634 2.135-4.766 4.772-4.766c2.631 0 4.8 2.1 4.8 4.8 C54.767 82.9 52.6 85 50 85.042z M67.133 71.519H32.868V20.766h34.265V71.519z"/></svg>