<svg xmlns="http://www.w3.org/2000/svg" xmlns:xlink="http://www.w3.org/1999/xlink" version="1.1" id="Icon" x="0px" y="0px" viewBox="0.492 0 99.015 67.793" enable-background="new 0.492 0 99.015 67.793" xml:space="preserve" preserveAspectRatio="xMidYMid"><path fill="#ADB0AF" d="M69.042 10.16c-1.884 0-3.73 0.129-5.519 0.375c-0.146 0.021-0.271 0.111-0.334 0.2 c-0.064 0.131-0.056 0.3 0 0.412c2.095 3.6 3.3 7.5 3.3 11.664c0 10.833-7.977 20.322-19.648 24.9 c-0.145 0.057-0.249 0.186-0.272 0.338c-0.024 0.2 0 0.3 0.2 0.405c4.854 3.9 11.5 6.5 19 7.2 c0.138 0 0.3 0.1 0.4 0.182s0.128 0.2 0.1 0.378c-0.482 4.454-1.399 8.79-1.89 10.9 c-0.048 0.2 0 0.4 0.2 0.542c0.181 0.1 0.4 0.1 0.584-0.028c6.584-5.127 10.851-10.109 12.819-12.644 c0.106-0.136 0.256-0.229 0.424-0.271c12.275-2.948 21.161-11.576 21.161-21.764C99.508 20.4 85.9 10.2 69 10.16z"/><path fill="#ADB0AF" d="M61.428 22.851C61.428 10.2 47.8 0 31 0C14.134 0 0.5 10.2 0.5 22.9 c0 10.2 8.9 18.8 21.2 21.768c0.167 0 0.3 0.1 0.4 0.271c1.971 2.5 6.2 7.5 12.8 12.6 c0.169 0.1 0.4 0.1 0.6 0.028c0.181-0.115 0.271-0.333 0.222-0.542c-0.494-2.141-1.413-6.474-1.895-10.928 c-0.014-0.139 0.028-0.274 0.114-0.379c0.089-0.104 0.213-0.172 0.35-0.182C49.538 44.3 61.4 34.6 61.4 22.851z"/></svg>